<!-- icon666.com - MILLIONS OF FREE VECTOR ICONS --><svg viewBox="0 0 256 256" xmlns="http://www.w3.org/2000/svg" xmlns:xlink="http://www.w3.org/1999/xlink"><linearGradient id="SVGID_1" gradientUnits="userSpaceOnUse" x1="45" x2="45" y1="84.788" y2="4.261"><stop offset="0" stop-color="#2161ac"></stop><stop offset="1" stop-color="#2b7fe2"></stop></linearGradient><g transform="matrix(.72 0 0 .72 128 128)"><g fill="none" stroke-miterlimit="10" stroke-width="0" transform="matrix(3.89 0 0 3.89 -175.05 -175.05)"><circle cx="45" cy="45" fill="url(#SVGID_1)" r="45"></circle><path d="m39.691 54.107c0-3.271.369-5.852 1.109-7.746.739-1.893 1.937-3.533 3.595-4.923 1.658-1.389 2.918-2.66 3.781-3.813.862-1.154 1.293-2.425 1.293-3.814 0-3.382-1.456-5.074-4.368-5.074-1.344 0-2.431.493-3.259 1.479-.829.986-1.266 2.318-1.311 3.999h-11.357c.044-4.48 1.456-7.969 4.234-10.467 2.777-2.499 6.675-3.748 11.693-3.748 4.996 0 8.865 1.154 11.61 3.461 2.745 2.308 4.116 5.59 4.116 9.846 0 1.859-.369 3.551-1.108 5.074-.739 1.524-1.928 3.081-3.562 4.671l-3.864 3.595c-1.099 1.053-1.861 2.133-2.285 3.242-.425 1.109-.66 2.515-.706 4.217h-9.611zm-1.377 10.214c0-1.657.599-3.018 1.798-4.082 1.198-1.064 2.693-1.596 4.486-1.596 1.792 0 3.287.532 4.486 1.596s1.799 2.425 1.799 4.082c0 1.659-.6 3.019-1.799 4.082-1.2 1.066-2.695 1.597-4.487 1.597s-3.288-.531-4.486-1.596c-1.198-1.063-1.797-2.424-1.797-4.083z" fill="#fff"></path></g></g></svg>